<svg version="1.2" xmlns="http://www.w3.org/2000/svg" viewBox="0 0 1080 1536" width="800" height="1138">
	<title>New Project</title>
	<style>
		.s0 { fill: none;stroke: #cedbe0;stroke-miterlimit:100;stroke-width: 5.4 } 
	</style>
	<path id="Shape 1" class="s0" d="m123.8 24.2c18.6-18.8 46.4 177.6 152.5 244.7 128.2 81 236.6 84.5 292.9 79.3 193.6-17.7 403-84.2 426 54.1 11.3 68.3-20.7 145.5-133.4 158.4-350.2 39.9-582.7-80.3-748 55.2-49 40.1-46.6 108.2-27.6 156.8 25.4 64.8 140.1 99 248.6 109.3 259 24.6 445.9-126.2 611.4 25.3 21.8 20 65.5 90.9 9.5 164.5-44.6 58.4-105.6 67.5-204.3 73.8-243.2 15.6-424.9-78.8-558.8-22-112.7 47.8-98.7 168.1-65 198.1 90.6 80.6 210.4 91.8 246.3 195.4"/>
</svg>